<svg width="131" height="39" viewBox="0 0 131 39" fill="none" xmlns="http://www.w3.org/2000/svg">
<g clip-path="url(#clip0_139_23223)">
<path d="M118.388 25.6497C115.636 25.6497 113.19 23.6555 112.56 20.9024H128.901C128.901 20.9024 128.989 19.9048 128.989 19.5519C128.989 13.7083 124.234 8.95312 118.391 8.95312C112.547 8.95312 107.793 13.7074 107.793 19.5519C107.793 25.3963 112.521 30.0401 118.391 30.0401C124.261 30.0401 127.689 25.7157 128.545 22.5849H123.563C123.563 22.5849 121.979 25.6497 118.388 25.6497ZM118.391 13.3417C121.03 13.3417 123.321 15.0844 124.105 17.6819H112.677C113.458 15.0844 115.75 13.3417 118.391 13.3417Z" fill="white"/>
<path d="M56.0327 30.0399C50.1892 30.0399 45.6055 25.3349 45.6055 19.5517C45.6055 13.7682 50.3597 8.95288 56.2031 8.95288C62.0466 8.95288 66.8009 13.8944 66.8009 19.4954C66.8009 21.8819 66.8009 29.5145 66.8009 29.5145H62.6863V26.1709L62.3868 26.0921C61.6622 27.8683 59.0382 30.0399 56.0327 30.0399ZM56.2031 13.3414C52.903 13.3414 50.2167 16.1124 50.2167 19.5191C50.2167 22.9258 52.9019 25.6504 56.2031 25.6504C59.5044 25.6504 62.1896 22.9001 62.1896 19.5191C62.1896 16.138 59.5044 13.3414 56.2031 13.3414Z" fill="white"/>
<path d="M78.5405 30.0399C72.697 30.0399 68.1133 25.3349 68.1133 19.5517C68.1133 13.7682 72.8675 8.95288 78.711 8.95288C84.5546 8.95288 89.3088 13.8944 89.3088 19.4954C89.3088 21.8819 89.3088 29.5145 89.3088 29.5145H85.1943V26.1709L84.8946 26.0921C84.1701 27.8683 81.546 30.0399 78.5405 30.0399ZM78.711 13.3414C75.4107 13.3414 72.7246 16.1124 72.7246 19.5191C72.7246 22.9258 75.4097 25.6504 78.711 25.6504C82.0122 25.6504 84.6975 22.9001 84.6975 19.5191C84.6975 16.138 82.0122 13.3414 78.711 13.3414Z" fill="white"/>
<path d="M96.2182 29.5122L87.7734 9.47986H92.394L98.5829 24.2365L104.774 9.47986H109.393L100.949 29.5122H96.2182Z" fill="white"/>
<path d="M15.7116 30.0089C18.0096 30.0089 19.8724 28.1459 19.8724 25.848C19.8724 23.5501 18.0096 21.6873 15.7116 21.6873C13.4137 21.6873 11.5508 23.5501 11.5508 25.848C11.5508 28.1459 13.4137 30.0089 15.7116 30.0089Z" fill="white"/>
<path d="M26.5865 30.0087C28.8844 30.0087 30.7474 28.1458 30.7474 25.8479C30.7474 23.5499 28.8844 21.6871 26.5865 21.6871C24.2886 21.6871 22.4258 23.5499 22.4258 25.8479C22.4258 28.1458 24.2886 30.0087 26.5865 30.0087Z" fill="white"/>
<path d="M21.1417 8.67114C9.84404 8.67114 0.684543 18.0051 0.687501 29.5157H5.91293C5.91293 20.8894 12.6771 13.8956 21.1417 13.8956C29.6063 13.8956 36.3704 20.8894 36.3704 29.5157H41.5958C41.5978 18.0051 32.4383 8.67114 21.1417 8.67114Z" fill="white"/>
</g>
<defs>
<clipPath id="clip0_139_23223">
<rect width="129.547" height="37.3951" fill="white" transform="translate(0.6875 0.658447)"/>
</clipPath>
</defs>
</svg>
