<svg width="157" height="39" viewBox="0 0 157 39" fill="none" xmlns="http://www.w3.org/2000/svg">
<g clip-path="url(#clip0_139_23231)">
<path d="M53.3535 25.4092L58.5512 13.1737H58.6642L63.8618 25.4092H61.6988L58.0346 16.1276L59.3906 15.2075L55.2098 25.4092H53.3535ZM56.6141 21.0509H60.6334L61.2791 22.6489H56.0492L56.6141 21.0509ZM66.1896 13.658H73.9861V15.4658H68.0782V18.5973H73.3405V20.4213H68.0782V23.6013H74.2121V25.4092H66.1896V13.658ZM75.9425 24.4245C75.9425 24.1447 76.0448 23.9134 76.2492 23.7304C76.4536 23.5368 76.6796 23.4398 76.9272 23.4398C77.1532 23.4398 77.3684 23.5368 77.5728 23.7304C77.7773 23.9134 77.8796 24.1447 77.8796 24.4245C77.8796 24.7258 77.7773 24.9679 77.5728 25.1509C77.3684 25.323 77.1532 25.4092 76.9272 25.4092C76.6796 25.4092 76.4536 25.323 76.2492 25.1509C76.0448 24.9679 75.9425 24.7258 75.9425 24.4245ZM86.3691 16.0469C85.9493 15.8318 85.5027 15.6488 85.0293 15.4982C84.5558 15.3367 84.1037 15.256 83.6733 15.256C83.0922 15.256 82.6296 15.3852 82.2851 15.6433C81.9515 15.9016 81.7847 16.2567 81.7847 16.7087C81.7847 17.0316 81.9032 17.3168 82.1398 17.5642C82.3766 17.801 82.6779 18.0108 83.0439 18.1938C83.4097 18.366 83.7971 18.5328 84.206 18.6942C84.5612 18.8234 84.9109 18.9794 85.2552 19.1623C85.6104 19.3345 85.9278 19.5496 86.2076 19.8079C86.4874 20.0662 86.708 20.389 86.8694 20.7765C87.0417 21.1531 87.1277 21.6212 87.1277 22.1808C87.1277 22.7942 86.9717 23.3591 86.6596 23.8757C86.3475 24.3815 85.901 24.785 85.3199 25.0862C84.7387 25.3877 84.0284 25.5383 83.1892 25.5383C82.7049 25.5383 82.226 25.4845 81.7525 25.3769C81.2898 25.2692 80.8485 25.124 80.4289 24.9411C80.0091 24.7473 79.6218 24.5321 79.2667 24.2953L80.1061 22.8265C80.3644 23.0202 80.6602 23.1977 80.9938 23.3591C81.3274 23.5206 81.6717 23.6497 82.0268 23.7466C82.382 23.8326 82.7156 23.8757 83.0277 23.8757C83.3613 23.8757 83.6895 23.8219 84.0124 23.7143C84.3459 23.6066 84.6203 23.4291 84.8356 23.1816C85.0616 22.934 85.1746 22.6059 85.1746 22.1969C85.1746 21.8633 85.0778 21.5782 84.884 21.3414C84.6903 21.1047 84.4374 20.9003 84.1254 20.728C83.8241 20.5452 83.4905 20.3837 83.1245 20.2439C82.7587 20.1039 82.382 19.9479 81.9947 19.7756C81.618 19.6035 81.2683 19.3937 80.9455 19.1462C80.6225 18.8879 80.3589 18.5758 80.1544 18.21C79.95 17.844 79.8478 17.3921 79.8478 16.854C79.8478 16.2084 79.9984 15.6488 80.2997 15.1752C80.601 14.7018 81.0153 14.3252 81.5427 14.0454C82.0807 13.7656 82.6994 13.6149 83.399 13.5934C84.2275 13.5934 84.9324 13.6956 85.5135 13.9001C86.1054 14.0938 86.6272 14.3305 87.0793 14.6103L86.3691 16.0469ZM89.034 13.658H96.8951V15.4658H93.8604V25.4092H91.988V15.4658H89.034V13.658ZM101.302 21.1801C101.302 21.6427 101.42 22.0678 101.657 22.4552C101.904 22.8319 102.227 23.1385 102.625 23.3753C103.024 23.6013 103.47 23.7143 103.965 23.7143C104.482 23.7143 104.944 23.6013 105.353 23.3753C105.762 23.1385 106.085 22.8319 106.322 22.4552C106.559 22.0678 106.677 21.6427 106.677 21.1801V13.658H108.533V21.2284C108.533 22.0786 108.329 22.8319 107.92 23.4883C107.511 24.134 106.962 24.6398 106.273 25.0056C105.585 25.3607 104.815 25.5383 103.965 25.5383C103.126 25.5383 102.362 25.3607 101.673 25.0056C100.984 24.6398 100.436 24.134 100.027 23.4883C99.6284 22.8319 99.4293 22.0786 99.4293 21.2284V13.658H101.302V21.1801ZM111.894 25.4092V13.658H115.236C116.409 13.658 117.404 13.8355 118.222 14.1907C119.04 14.535 119.701 15.0031 120.207 15.595C120.713 16.1761 121.079 16.8272 121.305 17.5481C121.542 18.2583 121.66 18.974 121.66 19.695C121.66 20.5773 121.504 21.3684 121.192 22.0678C120.88 22.7672 120.455 23.3699 119.917 23.8757C119.379 24.3707 118.755 24.7528 118.044 25.0217C117.345 25.28 116.597 25.4092 115.801 25.4092H111.894ZM113.783 23.6013H115.462C116.086 23.6013 116.656 23.5151 117.173 23.343C117.689 23.16 118.136 22.9018 118.512 22.5682C118.9 22.2238 119.196 21.7988 119.4 21.2931C119.615 20.7873 119.723 20.2115 119.723 19.5658C119.723 18.8341 119.599 18.21 119.352 17.6934C119.115 17.1661 118.798 16.741 118.399 16.4182C118.012 16.0846 117.587 15.8425 117.124 15.6918C116.661 15.5412 116.204 15.4658 115.752 15.4658H113.783V23.6013ZM124.497 13.658H126.385V25.4092H124.497V13.658ZM129.216 19.5496C129.216 18.7319 129.372 17.9624 129.684 17.2414C129.996 16.5204 130.427 15.8801 130.976 15.3205C131.525 14.7609 132.159 14.3252 132.88 14.0131C133.612 13.6902 134.392 13.5288 135.221 13.5288C136.039 13.5288 136.808 13.6902 137.53 14.0131C138.262 14.3252 138.901 14.7609 139.45 15.3205C140.01 15.8801 140.445 16.5204 140.758 17.2414C141.081 17.9624 141.242 18.7319 141.242 19.5496C141.242 20.3783 141.081 21.1531 140.758 21.8741C140.445 22.5951 140.01 23.2353 139.45 23.7949C138.901 24.3438 138.262 24.7743 137.53 25.0862C136.808 25.3877 136.039 25.5383 135.221 25.5383C134.382 25.5383 133.601 25.3877 132.88 25.0862C132.159 24.7743 131.525 24.3492 130.976 23.8111C130.427 23.2623 129.996 22.6274 129.684 21.9063C129.372 21.1746 129.216 20.389 129.216 19.5496ZM131.153 19.5496C131.153 20.1307 131.255 20.6743 131.46 21.1801C131.675 21.6858 131.971 22.1324 132.348 22.5197C132.724 22.8964 133.16 23.1923 133.655 23.4076C134.151 23.6228 134.688 23.7304 135.27 23.7304C135.83 23.7304 136.35 23.6228 136.835 23.4076C137.331 23.1923 137.761 22.8964 138.127 22.5197C138.493 22.1324 138.777 21.6858 138.981 21.1801C139.198 20.6743 139.305 20.1307 139.305 19.5496C139.305 18.9579 139.198 18.409 138.981 17.9032C138.766 17.3974 138.477 16.9508 138.111 16.5635C137.745 16.1761 137.315 15.8748 136.819 15.6595C136.324 15.4443 135.791 15.3367 135.221 15.3367C134.65 15.3367 134.117 15.4443 133.623 15.6595C133.128 15.8748 132.692 16.1761 132.315 16.5635C131.95 16.9508 131.664 17.4029 131.46 17.9194C131.255 18.4251 131.153 18.9686 131.153 19.5496Z" fill="white"/>
<path d="M0.234375 2.81493V37.2466C0.234375 37.6924 0.595722 38.0536 1.04146 38.0536H12.8787C13.3245 38.0536 13.6858 37.6924 13.6858 37.2466V30.1638C13.6858 29.4175 14.6118 29.0711 15.1017 29.6341L22.1879 37.7762C22.3413 37.9525 22.5634 38.0536 22.7968 38.0536H31.0143C31.7067 38.0536 32.0777 37.2389 31.6231 36.7165L1.65021 2.28501C1.16024 1.72215 0.234375 2.06868 0.234375 2.81493Z" fill="white"/>
<path d="M6.24092 1.99545L36.2137 36.427C36.7038 36.99 37.6296 36.6433 37.6296 35.8973V20.2975C37.6296 19.8519 37.2683 19.4905 36.8225 19.4905H30.3259C30.0946 19.4905 29.8745 19.3914 29.7215 19.2182L28.0554 17.3349C27.5945 16.814 27.9644 15.9931 28.6599 15.9931H36.8225C37.2683 15.9931 37.6296 15.6318 37.6296 15.186V10.478C37.6296 10.0323 37.2683 9.67092 36.8225 9.67092H21.7245C21.4889 9.67092 21.2651 9.56797 21.1118 9.38909L19.267 7.23685C18.8183 6.71332 19.1902 5.90452 19.8798 5.90452H36.8225C37.2683 5.90452 37.6296 5.54318 37.6296 5.09743V1.46553C37.6296 1.01979 37.2683 0.658447 36.8225 0.658447H6.84966C6.15724 0.658447 5.78627 1.47317 6.24092 1.99545Z" fill="white"/>
</g>
<defs>
<clipPath id="clip0_139_23231">
<rect width="156.258" height="37.3951" fill="white" transform="translate(0.234375 0.658447)"/>
</clipPath>
</defs>
</svg>
