<svg width="202" height="39" viewBox="0 0 202 39" fill="none" xmlns="http://www.w3.org/2000/svg">
<g clip-path="url(#clip0_139_23235)">
<path d="M68.0875 20.5553V20.117C68.0875 19.0156 67.7107 18.1727 66.9577 17.5884C66.2273 16.9815 65.2687 16.678 64.0819 16.678C63.169 16.678 62.45 16.8354 61.9252 17.1501C61.423 17.4423 60.9437 17.8918 60.4873 18.4987C60.3503 18.6785 60.202 18.8021 60.0422 18.8695C59.8825 18.9369 59.6657 18.9707 59.3917 18.9707H58.3647C58.1136 18.9707 57.8854 18.8807 57.6801 18.701C57.4974 18.5211 57.4177 18.3076 57.4403 18.0604C57.5089 17.3861 57.8397 16.723 58.4331 16.0712C59.0494 15.3969 59.8597 14.8462 60.8638 14.4192C61.8681 13.9921 62.9408 13.7786 64.0819 13.7786C66.2044 13.7786 67.9161 14.363 69.217 15.5318C70.5408 16.7005 71.2028 18.3413 71.2028 20.4541V30.7371C71.2028 30.9844 71.1113 31.198 70.9288 31.3777C70.7461 31.5575 70.5295 31.6474 70.2784 31.6474H69.0116C68.7606 31.6474 68.5439 31.5575 68.3612 31.3777C68.1787 31.198 68.0875 30.9844 68.0875 30.7371V29.3548C67.7223 30.164 66.9461 30.8046 65.7593 31.2767C64.5725 31.7487 63.3857 31.9846 62.1989 31.9846C61.035 31.9846 59.9967 31.7823 59.0836 31.3777C58.1707 30.9506 57.4632 30.3775 56.961 29.6582C56.4817 28.9389 56.2422 28.1299 56.2422 27.2307C56.2422 25.545 56.8813 24.2302 58.1594 23.2861C59.4374 22.3196 61.1377 21.6679 63.2603 21.3307L68.0875 20.5553ZM68.0875 23.2526L64.0477 23.893C62.5641 24.1178 61.4117 24.4887 60.5901 25.0056C59.7684 25.5001 59.3575 26.1294 59.3575 26.8938C59.3575 27.4555 59.6199 27.9613 60.145 28.4109C60.6698 28.8603 61.4687 29.0851 62.5414 29.0851C64.1847 29.0851 65.5198 28.6244 66.5468 27.7028C67.5737 26.7814 68.0875 25.5787 68.0875 24.0953V23.2526Z" fill="white"/>
<path d="M79.3126 30.737C79.3126 30.9842 79.2214 31.1979 79.0387 31.3776C78.8562 31.5573 78.6393 31.6473 78.3882 31.6473H77.1217C76.8706 31.6473 76.6537 31.5573 76.4712 31.3776C76.2885 31.1979 76.1973 30.9842 76.1973 30.737V8.62002C76.1973 8.37278 76.2885 8.15925 76.4712 7.97943C76.6537 7.79961 76.8706 7.70972 77.1217 7.70972H78.3882C78.6393 7.70972 78.8562 7.79961 79.0387 7.97943C79.2214 8.15925 79.3126 8.37278 79.3126 8.62002V30.737Z" fill="white"/>
<path d="M91.6447 29.0852C93.9271 29.0852 95.4675 28.2087 96.2665 26.4554C96.4261 26.1184 96.586 25.8823 96.7458 25.7475C96.9054 25.6126 97.1223 25.5451 97.3963 25.5451H98.4232C98.6743 25.5451 98.891 25.6351 99.0737 25.815C99.2562 25.9723 99.3474 26.1633 99.3474 26.3881C99.3474 27.1522 99.0395 27.9726 98.4232 28.8493C97.807 29.7259 96.917 30.4676 95.7528 31.0744C94.5888 31.6813 93.2195 31.9847 91.6447 31.9847C90.0243 31.9847 88.6206 31.6475 87.434 30.9734C86.2472 30.299 85.3341 29.3776 84.6952 28.2087C84.056 27.0174 83.7024 25.6913 83.6338 24.2303C83.6109 23.9606 83.5996 23.4437 83.5996 22.6794C83.5996 22.14 83.6109 21.7579 83.6338 21.5331C83.8394 19.2405 84.6266 17.3749 85.9961 15.9364C87.3654 14.4979 89.2484 13.7787 91.6447 13.7787C93.2195 13.7787 94.5775 14.0821 95.7186 14.689C96.8826 15.2734 97.7612 16.0039 98.3546 16.8805C98.9709 17.7346 99.3019 18.5437 99.3474 19.3079C99.3703 19.5552 99.279 19.7687 99.0737 19.9485C98.891 20.1283 98.6743 20.2182 98.4232 20.2182H97.3963C97.1223 20.2182 96.9054 20.1508 96.7458 20.0159C96.586 19.8811 96.4261 19.6451 96.2665 19.3079C95.4675 17.5548 93.9271 16.6782 91.6447 16.6782C90.3895 16.6782 89.2939 17.094 88.3582 17.9256C87.4225 18.7573 86.8861 20.0159 86.7491 21.7017C86.7265 21.9489 86.7149 22.3535 86.7149 22.9155C86.7149 23.4324 86.7265 23.8145 86.7491 24.0617C86.909 25.7475 87.4453 27.0061 88.3582 27.8377C89.2939 28.6694 90.3895 29.0852 91.6447 29.0852Z" fill="white"/>
<path d="M119.26 30.737C119.26 30.9842 119.168 31.1979 118.986 31.3776C118.803 31.5573 118.586 31.6473 118.335 31.6473H117.069C116.818 31.6473 116.601 31.5573 116.418 31.3776C116.236 31.1979 116.144 30.9842 116.144 30.737V21.8363C116.144 20.1505 115.722 18.8694 114.878 17.9928C114.033 17.1162 112.858 16.6779 111.351 16.6779C109.868 16.6779 108.693 17.1162 107.825 17.9928C106.981 18.8694 106.559 20.1505 106.559 21.8363V30.737C106.559 30.9842 106.467 31.1979 106.285 31.3776C106.102 31.5573 105.885 31.6473 105.634 31.6473H104.368C104.116 31.6473 103.9 31.5573 103.717 31.3776C103.535 31.1979 103.443 30.9842 103.443 30.737V8.62002C103.443 8.37278 103.535 8.15925 103.717 7.97943C103.9 7.79961 104.116 7.70972 104.368 7.70972H105.634C105.885 7.70972 106.102 7.79961 106.285 7.97943C106.467 8.15925 106.559 8.37278 106.559 8.62002V16.071C107.061 15.4192 107.746 14.8798 108.613 14.4527C109.503 14.0032 110.587 13.7784 111.865 13.7784C113.303 13.7784 114.581 14.0818 115.699 14.6887C116.818 15.2956 117.685 16.1722 118.301 17.3185C118.94 18.4423 119.26 19.7797 119.26 21.3305V30.737Z" fill="white"/>
<path d="M131.256 13.7786C133.698 13.7786 135.626 14.5428 137.042 16.0712C138.457 17.5996 139.164 19.6787 139.164 22.3085V23.2188C139.164 23.466 139.073 23.6795 138.89 23.8594C138.708 24.0391 138.491 24.1291 138.24 24.1291H126.463V24.3312C126.509 25.8149 126.965 26.9835 127.832 27.8376C128.723 28.6693 129.864 29.0851 131.256 29.0851C132.397 29.0851 133.276 28.9389 133.892 28.6468C134.531 28.3547 135.101 27.9389 135.604 27.3993C135.786 27.2196 135.946 27.0959 136.083 27.0286C136.243 26.9611 136.448 26.9273 136.699 26.9273H137.726C138 26.9273 138.228 27.0173 138.411 27.1972C138.594 27.3769 138.673 27.5904 138.651 27.8376C138.559 28.4445 138.217 29.074 137.623 29.7257C137.053 30.355 136.22 30.8946 135.124 31.344C134.052 31.7711 132.762 31.9846 131.256 31.9846C129.795 31.9846 128.494 31.6587 127.353 31.0068C126.212 30.3326 125.299 29.411 124.614 28.2423C123.952 27.0735 123.553 25.7587 123.416 24.2977C123.371 23.6233 123.348 23.1064 123.348 22.7468C123.348 22.3871 123.371 21.8702 123.416 21.1958C123.553 19.8023 123.952 18.5436 124.614 17.4198C125.299 16.2959 126.201 15.4081 127.319 14.7563C128.46 14.1045 129.772 13.7786 131.256 13.7786ZM136.083 21.297V21.1958C136.083 19.8248 135.638 18.7346 134.748 17.9255C133.88 17.0939 132.717 16.678 131.256 16.678C129.932 16.678 128.802 17.0939 127.867 17.9255C126.954 18.7571 126.486 19.8472 126.463 21.1958V21.297H136.083Z" fill="white"/>
<path d="M146.41 16.0712C146.958 15.3744 147.574 14.8237 148.259 14.4192C148.943 13.9921 149.856 13.7786 150.998 13.7786C153.668 13.7786 155.539 14.7563 156.612 16.7118C157.274 15.7677 158.027 15.0485 158.872 14.554C159.716 14.037 160.823 13.7786 162.192 13.7786C164.429 13.7786 166.084 14.4416 167.156 15.7677C168.252 17.0939 168.8 18.9707 168.8 21.3981V30.7371C168.8 30.9844 168.708 31.198 168.526 31.3778C168.343 31.5575 168.126 31.6474 167.875 31.6474H166.608C166.357 31.6474 166.141 31.5575 165.958 31.3778C165.776 31.198 165.684 30.9844 165.684 30.7371V21.7353C165.684 18.3638 164.338 16.678 161.645 16.678C160.412 16.678 159.431 17.0826 158.7 17.8918C157.97 18.701 157.605 19.9034 157.605 21.4993V30.7371C157.605 30.9844 157.514 31.198 157.331 31.3778C157.148 31.5575 156.932 31.6474 156.681 31.6474H155.414C155.163 31.6474 154.946 31.5575 154.763 31.3778C154.581 31.198 154.49 30.9844 154.49 30.7371V21.7353C154.49 18.3638 153.143 16.678 150.45 16.678C149.217 16.678 148.236 17.0826 147.506 17.8918C146.775 18.701 146.41 19.9034 146.41 21.4993V30.7371C146.41 30.9844 146.319 31.198 146.136 31.3778C145.954 31.5575 145.737 31.6474 145.486 31.6474H144.219C143.968 31.6474 143.751 31.5575 143.569 31.3778C143.386 31.198 143.295 30.9844 143.295 30.7371V15.026C143.295 14.7788 143.386 14.5652 143.569 14.3854C143.751 14.2056 143.968 14.1157 144.219 14.1157H145.486C145.737 14.1157 145.954 14.2056 146.136 14.3854C146.319 14.5652 146.41 14.7788 146.41 15.026V16.0712Z" fill="white"/>
<path d="M178.388 37.2442C178.182 37.7838 177.851 38.0534 177.395 38.0534H175.991C175.763 38.0534 175.569 37.9748 175.409 37.8175C175.249 37.66 175.17 37.469 175.17 37.2442C175.17 37.1544 175.181 37.0756 175.204 37.0083L178.49 29.9618L171.712 15.161C171.689 15.0936 171.678 15.0149 171.678 14.925C171.678 14.7002 171.757 14.5092 171.917 14.3518C172.077 14.1945 172.271 14.1158 172.499 14.1158H173.903C174.359 14.1158 174.69 14.3856 174.896 14.925L180.168 26.3881L185.508 14.925C185.714 14.3856 186.045 14.1158 186.501 14.1158H187.905C188.133 14.1158 188.327 14.1945 188.487 14.3518C188.647 14.5092 188.726 14.7002 188.726 14.925C188.726 15.0149 188.715 15.0936 188.692 15.161L178.388 37.2442Z" fill="white"/>
<path d="M43.2982 20.4942L31.8028 0.977874C31.7472 0.881506 31.6666 0.801231 31.5691 0.745151C31.4717 0.68907 31.3609 0.659168 31.248 0.65846C31.135 0.657753 31.0238 0.686265 30.9257 0.74112C30.8276 0.795976 30.746 0.875234 30.6891 0.970897L27.2463 6.81882C27.1336 7.01024 27.0742 7.22739 27.0742 7.44843C27.0742 7.66947 27.1336 7.88661 27.2463 8.07803L34.742 20.8099C34.8548 21.0015 35.0172 21.1606 35.2128 21.2711C35.4083 21.3816 35.6301 21.4397 35.8558 21.4395H42.7414C42.854 21.4392 42.9647 21.4098 43.0621 21.3545C43.1598 21.2991 43.2407 21.2196 43.2972 21.1239C43.3536 21.0282 43.3833 20.9197 43.3835 20.8092C43.3835 20.6987 43.3542 20.5901 43.2982 20.4942Z" fill="white"/>
<path d="M13.1668 30.6943L24.6621 11.1779C24.7185 11.0823 24.7996 11.0029 24.8972 10.9478C24.9948 10.8926 25.1054 10.8635 25.2181 10.8635C25.3307 10.8635 25.4414 10.8926 25.539 10.9478C25.6366 11.0029 25.7177 11.0823 25.7741 11.1779L29.2186 17.0206C29.3313 17.2124 29.3906 17.4298 29.3906 17.6511C29.3906 17.8724 29.3313 18.0898 29.2186 18.2816L21.7229 31.0135C21.6104 31.205 21.4484 31.3642 21.2532 31.4746C21.0579 31.5851 20.8364 31.6432 20.6109 31.643H13.7237C13.6102 31.6437 13.4986 31.6146 13.4003 31.5593C13.3019 31.5037 13.2203 31.4238 13.1637 31.3274C13.1071 31.231 13.0776 31.1216 13.0781 31.0105C13.0787 30.8992 13.1093 30.7902 13.1668 30.6943Z" fill="white"/>
<path d="M25.7706 31.6384H48.7612C48.874 31.6384 48.9847 31.6091 49.0824 31.5538C49.18 31.4985 49.261 31.4188 49.3172 31.323C49.3734 31.2273 49.4031 31.1185 49.4029 31.008C49.4027 30.8974 49.373 30.7888 49.3164 30.6933L45.8771 24.847C45.7643 24.6554 45.6018 24.4964 45.4063 24.3859C45.2108 24.2752 44.989 24.2173 44.7633 24.2175H29.772C29.5462 24.2173 29.3245 24.2752 29.129 24.3859C28.9334 24.4964 28.771 24.6554 28.6582 24.847L25.2155 30.6933C25.1589 30.7888 25.1291 30.8974 25.1289 31.008C25.1288 31.1185 25.1583 31.2273 25.2145 31.323C25.2708 31.4188 25.3518 31.4985 25.4494 31.5538C25.547 31.6091 25.6578 31.6384 25.7706 31.6384Z" fill="white"/>
</g>
<defs>
<clipPath id="clip0_139_23235">
<rect width="200.331" height="37.3951" fill="white" transform="translate(0.736328 0.658447)"/>
</clipPath>
</defs>
</svg>
