<svg width="149" height="29" viewBox="0 0 149 29" fill="none" xmlns="http://www.w3.org/2000/svg">
<g clip-path="url(#clip0_139_23249)">
<path d="M87.6043 6.18096C85.6243 6.18014 83.6877 6.76112 82.0351 7.85172C80.391 8.93606 79.1061 10.4845 78.3437 12.3004C77.585 14.1102 77.3863 16.106 77.7734 18.0299C78.1626 19.9567 79.1177 21.7237 80.5166 23.1049C81.9235 24.4943 83.7087 25.4382 85.6491 25.8187C87.5935 26.2012 89.6074 26.0047 91.4413 25.2538C93.2681 24.5071 94.8331 23.2367 95.9394 21.6024C97.0396 19.9763 97.628 18.058 97.6288 16.0947C97.6288 13.465 96.5738 10.9435 94.6933 9.08442C92.8044 7.22147 90.2573 6.17823 87.6043 6.18096ZM87.6043 22.6668C83.9396 22.6668 81.3673 19.7193 81.3673 16.096C81.3673 12.47 83.9396 9.51981 87.6043 9.51981C91.2703 9.51981 93.8426 12.4673 93.8426 16.0947C93.8426 19.722 91.2677 22.6668 87.6043 22.6668ZM62.9583 22.4678H62.4815C62.0579 22.4677 61.6512 22.3013 61.3489 22.0044C61.201 21.8576 61.0834 21.6831 61.003 21.4908C60.9226 21.2986 60.8808 21.0923 60.8802 20.8839V11.7662C60.8802 8.46206 58.8007 6.1863 53.301 6.1863C47.5475 6.1863 45.3919 8.71982 45.1716 12.5381H48.8443C49.0286 9.96721 50.2934 9.12449 53.2983 9.12449C56.3033 9.12449 57.2435 10.0727 57.2435 11.8356C57.2435 13.3782 56.2419 14.0019 54.3761 14.2209L51.5555 14.5147C46.208 15.0289 44.3516 17.3501 44.3516 20.3911C44.3516 24.0237 47.0627 26.0057 51.1815 26.0057C53.9661 26.0057 56.119 24.9787 57.4198 22.9954C57.6882 24.8304 58.7647 25.5743 61.1366 25.5743H62.9556L62.9596 22.4692L62.9583 22.4678ZM57.2435 18.0779C57.2435 21.6398 54.4602 23.1436 51.7491 23.1436C49.3358 23.1436 48.1872 22.0044 48.1872 20.2789C48.1872 18.5908 49.1154 17.525 52.1965 17.1577L54.8596 16.8639C55.9 16.7544 56.6786 16.5341 57.2368 16.0947L57.2435 18.0779ZM67.3282 9.63066V21.3433C67.3282 24.5005 69.1846 25.5663 72.6356 25.5663H75.8943V22.4678H72.6423C72.2176 22.4678 71.8102 22.3022 71.5097 22.0044C71.3611 21.858 71.243 21.6836 71.1623 21.4913C71.0816 21.2989 71.0399 21.0925 71.0396 20.8839V9.63066H75.8956V6.62035H71.0383V1.18872H67.3255V6.62035H62.9583V9.63066H67.3282ZM128.525 12.8627V25.5743H124.772V13.3408C124.772 10.6243 123.474 9.41296 121.1 9.41296C118.845 9.41296 116.608 11.0637 116.608 15.1771V25.5743H112.895V13.3408C112.895 10.6243 111.558 9.41296 109.183 9.41296C106.992 9.41296 104.691 11.0637 104.691 15.1771V25.5743H100.978V6.62035H104.542V9.45704C105.693 7.50982 107.474 6.18897 110.073 6.18897C113.08 6.18897 115.048 7.62067 115.976 9.75085C117.205 7.65807 119.168 6.18897 121.918 6.18897C126.259 6.18096 128.525 8.9709 128.525 12.8627ZM131.609 19.5457H135.32C135.618 22.1794 136.916 23.1436 140.032 23.1436C143.04 23.1436 144.264 22.1887 144.264 20.5099C144.264 19.0035 143.338 18.2703 140.18 17.7187L138.213 17.3527C134.092 16.6182 132.124 14.7818 132.124 11.6981C132.124 8.35655 134.788 6.19031 139.513 6.19031C144.97 6.19031 147.502 8.54086 147.605 12.5421H144.005C143.856 9.82564 142.222 9.0537 139.513 9.0537C137.099 9.0537 135.8 10.0099 135.8 11.5886C135.8 13.2099 137.099 13.8269 139.364 14.269L141.368 14.5989C146.045 15.4803 148.015 17.0963 148.015 20.2522C148.015 23.9623 145.007 26.0524 139.996 26.0524C134.886 26.0431 131.869 24.0611 131.609 19.5457Z" fill="white"/>
<path fill-rule="evenodd" clip-rule="evenodd" d="M10.6311 6.62769C10.6294 6.95566 10.563 7.28008 10.4359 7.58242C10.3088 7.88475 10.1234 8.15909 9.89021 8.38976C9.65706 8.62043 9.38075 8.80292 9.07707 8.9268C8.7734 9.05069 8.44829 9.11355 8.12032 9.11179C7.79223 9.11373 7.46698 9.051 7.16315 8.92719C6.85932 8.80338 6.58286 8.62092 6.34956 8.39023C6.11627 8.15954 5.93072 7.88515 5.80351 7.58273C5.6763 7.2803 5.60992 6.95578 5.60817 6.62769C5.60992 6.29972 5.67625 5.9753 5.80338 5.67297C5.93051 5.37063 6.11594 5.0963 6.34909 4.86562C6.58224 4.63495 6.85855 4.45246 7.16223 4.32858C7.4659 4.20469 7.79101 4.14183 8.11898 4.14359C8.44695 4.14183 8.77206 4.20469 9.07574 4.32858C9.37942 4.45246 9.65572 4.63495 9.88887 4.86562C10.122 5.0963 10.3075 5.37063 10.4346 5.67297C10.5617 5.9753 10.6294 6.29972 10.6311 6.62769ZM19.2093 9.11179C19.5373 9.11355 19.8624 9.05069 20.166 8.9268C20.4697 8.80292 20.746 8.62043 20.9792 8.38976C21.2123 8.15909 21.3978 7.88475 21.5249 7.58242C21.652 7.28008 21.7184 6.95566 21.7201 6.62769C21.7184 6.29972 21.652 5.9753 21.5249 5.67297C21.3978 5.37063 21.2123 5.0963 20.9792 4.86562C20.746 4.63495 20.4697 4.45246 20.166 4.32858C19.8624 4.20469 19.5373 4.14183 19.2093 4.14359C18.8813 4.14183 18.5562 4.20469 18.2525 4.32858C17.9489 4.45246 17.6726 4.63495 17.4394 4.86562C17.2062 5.0963 17.0208 5.37063 16.8937 5.67297C16.7666 5.9753 16.7002 6.29972 16.6985 6.62769C16.7002 6.95566 16.7666 7.28008 16.8937 7.58242C17.0208 7.88475 17.2062 8.15909 17.4394 8.38976C17.6726 8.62043 17.9489 8.80292 18.2525 8.9268C18.5562 9.05069 18.8813 9.11355 19.2093 9.11179ZM13.6521 19.4008C15.4885 19.4008 16.9776 17.9277 16.9776 16.1113C16.9776 14.295 15.4885 12.8246 13.6508 12.8246C11.8144 12.8246 10.3253 14.2977 10.3253 16.114C10.3253 17.9303 11.8144 19.4021 13.6508 19.4021L13.6521 19.4008ZM2.58051 18.5954C2.90848 18.5972 3.23358 18.5343 3.53726 18.4105C3.84094 18.2866 4.11724 18.1041 4.3504 17.8734C4.58355 17.6427 4.76898 17.3684 4.89611 17.0661C5.02324 16.7637 5.08957 16.4393 5.09132 16.1113C5.08957 15.7834 5.02324 15.459 4.89611 15.1566C4.76898 14.8543 4.58355 14.58 4.3504 14.3493C4.11724 14.1186 3.84094 13.9361 3.53726 13.8122C3.23358 13.6883 2.90848 13.6255 2.58051 13.6272C2.25231 13.6253 1.92695 13.6881 1.62303 13.812C1.31911 13.9359 1.04259 14.1184 0.809282 14.3493C0.575972 14.5801 0.390446 14.8547 0.263313 15.1572C0.13618 15.4598 0.0699333 15.7845 0.0683594 16.1127C0.0701085 16.4407 0.136441 16.7651 0.263568 17.0674C0.390696 17.3697 0.576129 17.6441 0.809281 17.8747C1.04243 18.1054 1.31873 18.2879 1.62241 18.4118C1.92609 18.5357 2.2512 18.5985 2.57917 18.5968L2.58051 18.5954ZM10.6245 25.5963C10.6227 25.9243 10.5564 26.2487 10.4292 26.5511C10.3021 26.8534 10.1167 27.1277 9.88353 27.3584C9.65038 27.5891 9.37408 27.7716 9.0704 27.8954C8.76672 28.0193 8.44161 28.0822 8.11364 28.0804C7.78556 28.0824 7.46031 28.0196 7.15647 27.8958C6.85264 27.772 6.57618 27.5896 6.34289 27.3589C6.10959 27.1282 5.92404 26.8538 5.79683 26.5514C5.66962 26.2489 5.60324 25.9244 5.60149 25.5963C5.60324 25.2684 5.66957 24.9439 5.7967 24.6416C5.92383 24.3393 6.10926 24.0649 6.34241 23.8343C6.57557 23.6036 6.85187 23.4211 7.15555 23.2972C7.45923 23.1733 7.78433 23.1105 8.1123 23.1122C8.44039 23.1103 8.76564 23.173 9.06947 23.2968C9.3733 23.4206 9.64976 23.6031 9.88306 23.8338C10.1164 24.0645 10.3019 24.3389 10.4291 24.6413C10.5563 24.9437 10.6227 25.2683 10.6245 25.5963ZM19.1879 28.0804C19.516 28.0824 19.8413 28.0196 20.1451 27.8958C20.4489 27.772 20.7254 27.5896 20.9587 27.3589C21.192 27.1282 21.3775 26.8538 21.5047 26.5514C21.6319 26.2489 21.6983 25.9244 21.7001 25.5963C21.6983 25.2684 21.632 24.9439 21.5049 24.6416C21.3777 24.3393 21.1923 24.0649 20.9591 23.8343C20.726 23.6036 20.4497 23.4211 20.146 23.2972C19.8423 23.1733 19.5172 23.1105 19.1893 23.1122C18.8612 23.1103 18.5359 23.173 18.2321 23.2968C17.9283 23.4206 17.6518 23.6031 17.4185 23.8338C17.1852 24.0645 16.9997 24.3389 16.8724 24.6413C16.7452 24.9437 16.6789 25.2683 16.6771 25.5963C16.6789 25.9243 16.7452 26.2487 16.8723 26.5511C16.9994 26.8534 17.1849 27.1277 17.418 27.3584C17.6512 27.5891 17.9275 27.7716 18.2312 27.8954C18.5348 28.0193 18.8599 28.0822 19.1879 28.0804ZM27.2399 16.1113C27.2381 16.4394 27.1718 16.764 27.0445 17.0664C26.9173 17.3688 26.7318 17.6432 26.4985 17.8739C26.2652 18.1046 25.9887 18.287 25.6849 18.4108C25.3811 18.5347 25.0558 18.5974 24.7277 18.5954C24.3998 18.5972 24.0747 18.5343 23.771 18.4105C23.4673 18.2866 23.191 18.1041 22.9578 17.8734C22.7247 17.6427 22.5393 17.3684 22.4121 17.0661C22.285 16.7637 22.2187 16.4393 22.2169 16.1113C22.2187 15.7834 22.285 15.459 22.4121 15.1566C22.5393 14.8543 22.7247 14.58 22.9578 14.3493C23.191 14.1186 23.4673 13.9361 23.771 13.8122C24.0747 13.6883 24.3998 13.6255 24.7277 13.6272C25.0557 13.6255 25.3808 13.6883 25.6845 13.8122C25.9882 13.9361 26.2645 14.1186 26.4976 14.3493C26.7308 14.58 26.9162 14.8543 27.0433 15.1566C27.1705 15.459 27.2381 15.7834 27.2399 16.1113Z" fill="white"/>
</g>
<defs>
<clipPath id="clip0_139_23249">
<rect width="148.245" height="28.0463" fill="white" transform="translate(0.0683594 0.658447)"/>
</clipPath>
</defs>
</svg>
