<svg width="162" height="43" viewBox="0 0 162 43" fill="none" xmlns="http://www.w3.org/2000/svg">
<g clip-path="url(#clip0_141_25353)">
<path d="M90.7725 13.9455C90.7725 9.04411 90.8534 4.48073 91.0959 0.255371L78.7287 2.70608V3.88918L79.9412 4.05818C80.8303 4.14271 81.3963 4.48073 81.7194 4.98777C82.0428 5.57932 82.2853 6.42438 82.4471 7.692C82.6087 10.1427 82.7702 15.7202 82.6896 24.5089C82.6896 33.213 82.6087 38.7061 82.4471 40.8187C86.8927 41.8327 90.3682 42.2554 92.9549 42.2554C97.8049 42.2554 101.604 40.8187 104.352 37.8611C107.1 34.9878 108.555 30.9314 108.555 25.9455C108.555 21.9737 107.505 18.6779 105.403 16.0582C103.301 13.4385 100.634 12.1709 97.4815 12.1709C95.3799 12.1709 93.1975 12.7624 90.7725 13.9455ZM91.0151 39.9737C90.8534 37.2694 90.6916 29.1569 90.6916 15.8892C91.419 15.6356 92.3892 15.4666 93.6015 15.4666C95.5416 15.4666 97.0772 16.4807 98.2089 18.5934C99.3405 20.7061 99.9064 23.2413 99.9064 26.4526C99.9064 30.4245 99.2597 33.6357 97.9663 36.3399C96.6732 38.9597 95.0565 40.3118 93.0358 40.3118C92.3892 40.1428 91.7424 40.0582 91.0151 39.9737ZM32.3321 1.10044H0V2.79058L1.69744 2.95959C2.99072 3.21312 3.87986 3.72016 4.44567 4.48073C5.01149 5.32579 5.33481 6.67791 5.41564 8.53706C6.06228 17.6638 6.06228 26.199 5.41564 34.0583C5.25396 35.9173 4.93064 37.2694 4.44567 38.1144C3.87986 38.9597 2.99072 39.4666 1.69744 39.6356L0 39.8892V41.5794H20.8542V39.8892L18.6718 39.7201C17.3785 39.5511 16.4894 38.9597 15.9236 38.199C15.3578 37.354 15.0345 36.0018 14.9536 34.1428C14.7111 30.7623 14.5495 26.875 14.5495 22.5652L18.9143 22.6497C21.2584 22.7342 22.875 24.5934 23.6833 28.3116H25.2999V14.5371H23.6833C22.875 18.1709 21.3392 20.03 18.9143 20.1145L14.5495 20.199C14.5495 12.5934 14.7111 7.18495 14.9536 3.88918H21.3392C25.8657 3.88918 28.9372 6.93143 30.7156 13.0159L32.6555 12.4244L32.3321 1.10044ZM28.5332 27.1285C28.5332 31.5231 29.7457 35.1568 32.0896 38.0299C34.4337 40.9032 37.9095 42.2554 42.2743 42.2554C46.6392 42.2554 50.1958 40.8187 52.7822 37.8611C55.3689 34.9878 56.5813 31.354 56.5813 26.9595C56.5813 22.5652 55.3689 18.9314 53.0247 16.0582C50.6806 13.1849 47.2048 11.8328 42.84 11.8328C38.4752 11.8328 34.9188 13.2695 32.3321 16.2272C29.7457 19.1004 28.5332 22.7342 28.5332 27.1285ZM46.5583 17.4948C47.5282 19.9455 47.9325 23.1568 47.9325 27.044C47.9325 36.0018 46.1541 40.3961 42.6786 40.3961C40.9001 40.3961 39.5259 39.1287 38.556 36.5935C37.5861 34.0583 37.1821 30.8469 37.1821 27.044C37.1821 18.1709 38.9602 13.7765 42.436 13.7765C44.2142 13.692 45.5884 14.9596 46.5583 17.4948ZM114.86 38.0299C117.527 40.8187 120.922 42.2554 124.964 42.2554C127.469 42.2554 129.652 41.7482 131.592 40.6497C133.532 39.6356 135.068 38.368 136.118 36.8468L135.31 35.8328C133.532 37.2694 131.511 37.9454 129.167 37.9454C125.934 37.9454 123.428 36.8468 121.731 34.5652C119.952 32.2835 119.144 29.4102 119.306 25.692H136.603C136.603 21.6357 135.633 18.3399 133.613 15.7202C131.592 13.1849 128.763 11.9174 125.125 11.9174C120.599 11.9174 117.123 13.4385 114.617 16.3962C112.112 19.354 110.899 22.9878 110.899 27.2976C110.899 31.6921 112.192 35.2414 114.86 38.0299ZM120.841 16.8188C121.73 14.7906 122.862 13.7765 124.398 13.7765C126.823 13.7765 128.035 16.9878 128.035 23.4948L119.467 23.6638C119.548 21.1286 119.952 18.8469 120.841 16.8188ZM158.347 13.4385C156.164 12.4244 153.416 11.8328 150.102 11.8328C146.707 11.8328 144.04 12.7624 142.019 14.5371C139.998 16.3117 138.948 18.5089 138.948 21.1286C138.948 23.4103 139.594 25.1849 140.807 26.4526C142.019 27.7202 143.959 28.8188 146.465 29.7483C148.728 30.5933 150.345 31.4385 151.153 32.199C151.961 33.044 152.446 33.9738 152.446 35.2414C152.446 36.4245 152.042 37.523 151.153 38.368C150.345 39.2975 149.213 39.7201 147.758 39.7201C144.201 39.7201 141.534 37.0159 139.675 31.6076L138.301 32.0299L138.624 40.4806C141.534 41.6637 144.767 42.2554 148.324 42.2554C152.042 42.2554 154.871 41.4104 156.973 39.6356C159.074 37.9454 160.125 35.4947 160.125 32.4526C160.125 30.4245 159.64 28.7343 158.589 27.4666C157.538 26.199 155.841 25.1004 153.416 24.0864C150.749 23.0723 148.889 22.1427 147.92 21.2976C146.95 20.4525 146.465 19.4385 146.465 18.1709C146.465 16.9033 146.788 15.8892 147.516 15.0441C148.243 14.199 149.132 13.861 150.264 13.861C153.497 13.861 155.841 16.3117 157.296 21.1286L158.67 20.7061L158.347 13.4385ZM80.5878 12.6779C79.4564 12.0864 78.2439 11.8328 76.8697 11.8328C75.4955 11.8328 74.1213 12.4244 72.5857 13.6075C71.0498 14.7906 69.9182 16.3962 69.0291 18.5934L69.11 11.8328L56.8236 14.3681V15.5511L58.0361 15.6356C59.572 15.8047 60.4611 17.0723 60.6228 19.354C61.1079 24.5934 61.1079 30.1709 60.6228 36.0864C60.4611 38.368 59.572 39.5511 58.0361 39.8047L56.8236 39.9737V41.5794H73.9599V39.9737L71.7775 39.8047C70.2416 39.6356 69.3525 38.368 69.1908 36.0864C68.7057 31.185 68.6251 25.9455 69.0291 20.5371C69.5142 19.692 70.565 19.185 72.1815 19.0159C73.7982 18.8469 75.6572 19.354 77.5971 20.5371L80.5878 12.6779Z" fill="white"/>
</g>
<defs>
<clipPath id="clip0_141_25353">
<rect width="162" height="42" fill="white" transform="translate(0 0.421387)"/>
</clipPath>
</defs>
</svg>
