<svg width="129" height="43" viewBox="0 0 129 43" fill="none" xmlns="http://www.w3.org/2000/svg">
<g clip-path="url(#clip0_141_25409)">
<path d="M29.7033 22.8104L31.9309 21.6576V4.13555H30.245L26.1278 9.59629H25.6641L25.9241 3.45513H43.7712L44.0312 9.60063H43.5371L39.5066 4.13989H37.773V21.6142L40.0137 22.7974V23.3912H29.7033V22.8104ZM45.7734 22.039V2.62735L44.0399 1.93392V1.57421L50.2894 0.421387H50.9741V9.6353L51.1215 9.48794C52.6189 8.21468 54.5171 7.51025 56.4826 7.49867C59.2216 7.49867 60.4308 9.04588 60.4308 11.9279V22.039L61.8956 22.8364V23.3912H53.7175V22.8364L55.1867 22.0346V11.8933C55.1867 10.3071 54.4933 9.6743 53.1974 9.6743C52.4147 9.65753 51.6498 9.90994 51.0305 10.3894V22.065L52.4737 22.8624V23.3912H44.2912V22.8624L45.7734 22.039ZM66.3422 16.0755C66.5112 19.2826 67.9501 21.7659 71.3566 21.7659C73.0034 21.7659 74.1736 21.0032 75.2571 20.4224V21.0552C73.7818 22.8542 71.568 23.8845 69.2416 23.8549C63.9629 23.8549 61.2672 20.9208 61.2672 15.8415C61.2672 10.8748 64.2186 7.78038 68.9859 7.78038C73.4715 7.78038 75.7988 10.021 75.7988 15.9281V16.0798L66.3422 16.0755ZM66.2555 15.3344L70.9102 15.0527C70.9102 11.0785 70.2297 8.43913 68.8645 8.43913C67.4084 8.44347 66.2555 11.5075 66.2555 15.3387V15.3344ZM0.666016 31.1619C0.666016 22.7151 6.25677 19.7073 12.4846 19.7073C15.1283 19.7073 17.6203 20.1407 19.0158 20.7085L19.1372 26.6026H18.5434L14.8899 20.8991C14.1554 20.6057 13.3651 20.4784 12.5756 20.5264C9.26451 20.5264 7.56995 24.3533 7.62629 30.6245C7.68696 38.1265 8.99147 41.5373 12.0295 41.5373C12.6518 41.5578 13.272 41.4547 13.8541 41.2339V33.1988L11.8475 32.059V31.3742H21.5382V32.0937L19.5619 33.1988V41.1299C17.2103 41.963 14.7324 42.3838 12.2376 42.3737C5.16029 42.3737 0.666016 39.0929 0.666016 31.1619ZM20.6367 27.2223V26.7326L27.1376 25.5841L27.8527 25.6448V38.4905C27.8527 40.0377 28.5981 40.5145 29.8463 40.5145C30.6673 40.5263 31.4478 40.1584 31.9612 39.5177V27.9938L30.1757 27.218V26.7153L36.6765 25.5668L37.331 25.6275V40.3628L39.0862 41.0995V41.5676L32.711 42.3477L32.0566 42.287V40.3498H31.8789C30.5697 41.6284 28.8241 42.3626 26.9946 42.404C23.8698 42.404 22.4396 40.5578 22.4396 37.7581V27.9938L20.6367 27.2223ZM61.4926 25.5581L62.03 25.6188V30.3861H62.1773C62.8751 26.919 64.4093 25.6188 66.2859 25.6188C66.5585 25.606 66.8311 25.6473 67.0876 25.7401V30.5681C66.6478 30.4752 66.1979 30.4359 65.7485 30.4511C64.5289 30.4193 63.3176 30.6607 62.2033 31.1575V40.5578L63.6855 41.3812V42.027H55.2344V41.3856L56.7556 40.5578V27.7251L54.97 27.192V26.7586L61.4926 25.5581ZM77.8444 25.9568V20.9425L76.0589 20.3184V19.924L82.6377 18.7149L83.2618 18.8059V40.3411L85.0777 40.9999V41.5546L78.5769 42.4214L78.0698 42.3607V40.5881H77.9224C76.7995 41.7788 75.225 42.4385 73.5885 42.404C70.0434 42.404 67.456 39.6954 67.456 34.1696C67.456 28.3318 70.4638 25.4628 75.0187 25.4628C75.9856 25.4134 76.9516 25.5822 77.8444 25.9568ZM77.8444 39.7517V26.8583C77.346 26.4352 76.6964 26.2333 76.0459 26.2992C74.2863 26.3599 73.1985 29.0166 73.1985 33.7536C73.1985 38.0095 73.9786 40.3931 76.3232 40.3108C76.881 40.3142 77.4214 40.1157 77.8444 39.7517ZM92.207 25.5581L92.7704 25.6188V40.5578L94.257 41.3812V42.027H85.8058V41.3856L87.3227 40.5578V27.9634L85.5068 27.2483V26.7499L92.207 25.5581ZM92.8008 21.5189C92.7514 23.0684 91.4642 24.2896 89.9144 24.2579C88.8933 24.2982 87.9321 23.7765 87.4098 22.8983C86.8871 22.0202 86.8871 20.9266 87.4098 20.0484C87.9321 19.1703 88.8933 18.6485 89.9144 18.6889C91.4876 18.6696 92.7795 19.9283 92.8008 21.5016V21.5189ZM111.779 40.5578V27.8247L109.993 27.2007V26.5852L116.494 25.3761L117.149 25.4368V27.3437H117.326C118.871 26.0237 120.834 25.2956 122.865 25.2894C125.695 25.2894 126.943 26.6286 126.943 29.6233V40.5318L128.46 41.3986V42.027H119.996V41.3856L121.513 40.5578V29.892C121.513 28.2538 120.798 27.5994 119.459 27.5994C118.656 27.5769 117.869 27.8275 117.227 28.3101V40.5535L118.718 41.3769V42.027H110.262V41.3856L111.779 40.5578ZM102.582 32.5574V30.4208C102.582 27.205 101.88 26.1519 99.8911 26.1519C99.6661 26.1575 99.4417 26.1778 99.2193 26.2125L95.6785 31.0102H95.1801V26.5896C97.0935 25.9328 99.0993 25.5846 101.122 25.5581C105.456 25.5581 107.965 26.7586 107.965 30.3861V40.7875L109.517 41.1949V41.6023C108.531 42.1086 107.435 42.3604 106.327 42.3347C104.19 42.3347 103.168 41.6326 102.699 40.4625H102.548C101.642 41.689 100.355 42.391 98.3352 42.391C95.7608 42.391 94.0013 40.7832 94.0013 38.0051C94.0013 35.3138 95.6698 33.8532 99.0633 33.2075L102.582 32.5574ZM102.582 39.7517V33.3158L101.499 33.4025C99.8001 33.5499 99.189 34.6333 99.189 37.03C99.189 39.6303 100.056 40.3064 101.235 40.3064C101.748 40.3533 102.251 40.1461 102.582 39.7517ZM47.7107 32.5574V30.4208C47.7107 27.205 47.0086 26.1519 45.0193 26.1519C44.7944 26.1575 44.5699 26.1778 44.3476 26.2125L40.8068 31.0058H40.3127V26.5896C42.2247 25.9332 44.2288 25.5851 46.2502 25.5581C50.5841 25.5581 53.0934 26.7586 53.0934 30.3861V40.7875L54.645 41.1949V41.6023C53.6594 42.1086 52.563 42.3604 51.4552 42.3347C49.3186 42.3347 48.2958 41.6326 47.8277 40.4625H47.6804C46.7746 41.689 45.4874 42.391 43.4678 42.391C40.8934 42.391 39.1339 40.7832 39.1339 38.0051C39.1339 35.3138 40.8024 33.8532 44.1959 33.2075L47.7107 32.5574ZM47.7107 39.7517V33.3158L46.6272 33.4025C44.9283 33.5499 44.3172 34.6333 44.3172 37.03C44.3172 39.6303 45.184 40.3064 46.3629 40.3064C46.876 40.3534 47.3792 40.1461 47.7107 39.7517Z" fill="white"/>
</g>
<defs>
<clipPath id="clip0_141_25409">
<rect width="127.794" height="42" fill="white" transform="translate(0.666016 0.421387)"/>
</clipPath>
</defs>
</svg>
